<svg width="562" height="116" viewBox="0 0 562 116" fill="none" xmlns="http://www.w3.org/2000/svg">
<path d="M0.982422 0.168083L0.982422 115.844H4.9518L4.9518 0.168083H0.982422Z" fill="black"/>
<path d="M6.50342 0.168083L6.50342 115.844H16.3065L16.3065 0.168083H6.50342Z" fill="black"/>
<path d="M19.0962 0.156166L19.0962 101.434H20.5878L20.5878 0.156166H19.0962Z" fill="black"/>
<path d="M138.272 0.156166V101.434H139.763V0.156166H138.272Z" fill="black"/>
<path d="M26.3018 0.156166L26.3018 101.434H30.2711L30.2711 0.156166H26.3018Z" fill="black"/>
<path d="M34.7329 0.156166L34.7329 101.434H36.7176L36.7176 0.156166H34.7329Z" fill="black"/>
<path d="M38.7515 0.156166L38.7515 101.434H40.7362L40.7362 0.156166H38.7515Z" fill="black"/>
<path d="M43.166 0.156166L43.166 101.434H47.1353L47.1353 0.156166H43.166Z" fill="black"/>
<path d="M49.167 0.156166L49.167 101.434H58.0198L58.0198 0.156166H49.167Z" fill="black"/>
<path d="M59.9688 0.156166L59.9688 101.434H62.1097L62.1097 0.156166H59.9688Z" fill="black"/>
<path d="M68.4849 0.156166V101.434H72.4542V0.156166H68.4849Z" fill="black"/>
<path d="M74.6069 0.156166V101.434H78.5762V0.156166H74.6069Z" fill="black"/>
<path d="M83.3394 0.156166V101.434H91.3381V0.156166H83.3394Z" fill="black"/>
<path d="M93.7925 0.156166V101.434H97.7618V0.156166H93.7925Z" fill="black"/>
<path d="M102.224 0.156166V101.434H106.193V0.156166H102.224Z" fill="black"/>
<path d="M113.554 0.156166V101.434H117.523V0.156166H113.554Z" fill="black"/>
<path d="M119.1 0.156166V101.434H123.069V0.156166H119.1Z" fill="black"/>
<path d="M127.543 0.156166V101.434H131.512V0.156166H127.543Z" fill="black"/>
<path d="M143.336 0.156166V101.434H149.482V0.156166H143.336Z" fill="black"/>
<path d="M152.851 0.156166V101.434H156.82V0.156166H152.851Z" fill="black"/>
<path d="M165.18 0.156166V101.434H169.149V0.156166H165.18Z" fill="black"/>
<path d="M170.713 0.168083V115.844H180.516V0.168083H170.713Z" fill="black"/>
<path d="M183.307 0.156166V101.434H184.798V0.156166H183.307Z" fill="black"/>
<path d="M302.47 0.156166V101.434H303.962V0.156166H302.47Z" fill="black"/>
<path d="M190.499 0.156166V101.434H194.468V0.156166H190.499Z" fill="black"/>
<path d="M198.931 0.156166V101.434H200.916V0.156166H198.931Z" fill="black"/>
<path d="M202.949 0.156166V101.434H204.933V0.156166H202.949Z" fill="black"/>
<path d="M207.375 0.156166V101.434H211.344V0.156166H207.375Z" fill="black"/>
<path d="M213.365 0.156166V101.434H222.218V0.156166H213.365Z" fill="black"/>
<path d="M224.166 0.156166V101.434H226.307V0.156166H224.166Z" fill="black"/>
<path d="M232.682 0.156166V101.434H236.652V0.156166H232.682Z" fill="black"/>
<path d="M238.804 0.156166V101.434H242.774V0.156166H238.804Z" fill="black"/>
<path d="M247.549 0.156166V101.434H255.548V0.156166H247.549Z" fill="black"/>
<path d="M257.989 0.156166V101.434H261.958V0.156166H257.989Z" fill="black"/>
<path d="M266.434 0.156166V101.434H270.403V0.156166H266.434Z" fill="black"/>
<path d="M277.751 0.156166V101.434H281.721V0.156166H277.751Z" fill="black"/>
<path d="M283.309 0.156166V101.434H287.278V0.156166H283.309Z" fill="black"/>
<path d="M291.741 0.156166V101.434H295.711V0.156166H291.741Z" fill="black"/>
<path d="M307.534 0.168083V115.844H313.681V0.168083H307.534Z" fill="black"/>
<path d="M317.048 0.168083V115.844H321.017V0.168083H317.048Z" fill="black"/>
<path d="M327.55 0.156166V101.434H335.549V0.156166H327.55Z" fill="black"/>
<path d="M337.989 0.156166V101.434H341.958V0.156166H337.989Z" fill="black"/>
<path d="M346.434 0.156166V101.434H350.403V0.156166H346.434Z" fill="black"/>
<path d="M357.752 0.156166V101.434H361.721V0.156166H357.752Z" fill="black"/>
<path d="M363.309 0.156166V101.434H367.278V0.156166H363.309Z" fill="black"/>
<path d="M371.741 0.156166V101.434H375.711V0.156166H371.741Z" fill="black"/>
<path d="M387.534 0.168083V115.844H393.681V0.168083H387.534Z" fill="black"/>
<path d="M397.048 0.168083V115.844H401.017V0.168083H397.048Z" fill="black"/>
<path d="M407.55 0.156166V101.434H415.549V0.156166H407.55Z" fill="black"/>
<path d="M417.989 0.156166V101.434H421.958V0.156166H417.989Z" fill="black"/>
<path d="M426.434 0.156166V101.434H430.403V0.156166H426.434Z" fill="black"/>
<path d="M437.752 0.156166V101.434H441.721V0.156166H437.752Z" fill="black"/>
<path d="M443.309 0.156166V101.434H447.278V0.156166H443.309Z" fill="black"/>
<path d="M451.741 0.156166V101.434H455.711V0.156166H451.741Z" fill="black"/>
<path d="M467.534 0.168083V115.844H473.681V0.168083H467.534Z" fill="black"/>
<path d="M477.048 0.168083V115.844H481.017V0.168083H477.048Z" fill="black"/>
<path d="M487.55 0.156166V101.434H495.549V0.156166H487.55Z" fill="black"/>
<path d="M497.989 0.156166V101.434H501.958V0.156166H497.989Z" fill="black"/>
<path d="M506.434 0.156166V101.434H510.403V0.156166H506.434Z" fill="black"/>
<path d="M517.752 0.156166V101.434H521.721V0.156166H517.752Z" fill="black"/>
<path d="M523.309 0.156166V101.434H527.278V0.156166H523.309Z" fill="black"/>
<path d="M531.741 0.156166V101.434H535.711V0.156166H531.741Z" fill="black"/>
<path d="M547.534 0.168083V115.844H553.681V0.168083H547.534Z" fill="black"/>
<path d="M557.048 0.168083V115.844H561.017V0.168083H557.048Z" fill="black"/>
</svg>
