<svg width="32" height="32" viewBox="0 0 32 32" fill="none" xmlns="http://www.w3.org/2000/svg">
<path d="M16 5.5C10.201 5.5 5.5 10.201 5.5 16C5.5 21.799 10.201 26.5 16 26.5C21.799 26.5 26.5 21.799 26.5 16C26.5 10.201 21.799 5.5 16 5.5ZM16 7.5C20.6944 7.5 24.5 11.3056 24.5 16C24.5 20.6944 20.6944 24.5 16 24.5C11.3056 24.5 7.5 20.6944 7.5 16C7.5 11.3056 11.3056 7.5 16 7.5ZM17.092 20.6169C17.153 20.4779 17.183 20.3259 17.183 20.1669C17.183 20.0089 17.153 19.8569 17.092 19.7179C17.031 19.5779 16.946 19.4549 16.839 19.3519C16.733 19.2499 16.609 19.1679 16.47 19.1079C16.328 19.0469 16.173 19.0159 16.007 19.0159C15.673 19.0159 15.388 19.1299 15.16 19.3529C14.932 19.5759 14.817 19.8499 14.817 20.1669C14.817 20.4849 14.932 20.7589 15.16 20.9819C15.388 21.2049 15.673 21.3189 16.007 21.3189C16.173 21.3189 16.329 21.2879 16.469 21.2269C16.609 21.1669 16.733 21.0849 16.839 20.9829C16.947 20.8789 17.032 20.7559 17.092 20.6169ZM15.0246 11.0082V17.9252H16.9886V11.0082H15.0246Z" fill="#FF0000"/>
</svg>
