<svg width="21" height="16" viewBox="0 0 21 16" fill="none" xmlns="http://www.w3.org/2000/svg">
<path d="M0.500977 1.3994V5H2.50098V2H5.50098V0H1.90098C1.52989 0.000370337 1.1741 0.147906 0.911648 0.410247C0.649195 0.672588 0.501506 1.02831 0.500977 1.3994Z" fill="black"/>
<path d="M20.5 1.3994C20.4995 1.02831 20.3518 0.672588 20.0893 0.410247C19.8269 0.147906 19.4711 0.000370337 19.1 0H15.5V2H18.5V5H20.5V1.3994Z" fill="black"/>
<path d="M18.5 11H20.5V14.6C20.4996 14.9712 20.3519 15.327 20.0895 15.5895C19.827 15.8519 19.4712 15.9996 19.1 16H15.5V14H18.5V11Z" fill="black"/>
<path d="M0.500977 14.6C0.5014 14.9712 0.649036 15.327 0.911495 15.5895C1.17395 15.8519 1.5298 15.9996 1.90098 16H5.50098V14H2.50098V11H0.500977V14.6Z" fill="black"/>
<path d="M4.49805 3.9971H6.49805V11.9971H4.49805V3.9971Z" fill="black"/>
<path d="M11.499 3.9971H9.49902V11.9971H11.499V3.9971Z" fill="black"/>
<path d="M14.498 3.9971H16.498V11.9971H14.498V3.9971Z" fill="black"/>
<path d="M8.49866 3.99741H7.49866V11.9974H8.49866V3.99741Z" fill="black"/>
<path d="M12.5 3.99741H13.5V11.9974H12.5V3.99741Z" fill="black"/>
</svg>
