<svg width="65" height="64" viewBox="0 0 65 64" fill="none" xmlns="http://www.w3.org/2000/svg">
<path d="M16.0024 29.4856L2 39.0483L31.5607 61.3612C31.5607 61.3612 32.5942 62 34.15 62C36.6277 61.045 36.2281 61.3612 39.3398 59.7674C56.4539 53.3923 70.4563 27.8918 56.4539 18.3292C56.4539 18.3292 33.1165 3.98514 30.0048 2.39136C26.8932 0.797578 17.5582 3.98514 12.8908 13.5478C8.2233 23.1105 16.0024 29.4856 16.0024 29.4856ZM16.0024 29.4856C16.0024 29.4856 30.0048 40.6421 36.2281 45.4234C40.8956 48.611 44.0073 47.0172 45.5631 47.0172M45.5631 47.0172C43.755 46.9279 45.9797 47.0172 45.5631 47.0172ZM45.5631 47.0172C44.0073 47.0172 39.3398 47.0172 36.2281 42.2359M58.4722 20.0032C55.9913 18.5008 58.0097 18.3292 53.3422 18.3292C44.0073 18.3292 37.784 24.7043 34.6723 32.6732" stroke="black" stroke-width="4" stroke-linecap="round" stroke-linejoin="round"/>
</svg>
