<svg width="25" height="24" viewBox="0 0 25 24" fill="none" xmlns="http://www.w3.org/2000/svg">
<path fill-rule="evenodd" clip-rule="evenodd" d="M7.5 7V8C5.84315 8 4.5 9.34315 4.5 11V19C4.5 20.6569 5.84315 22 7.5 22H17.5C19.1569 22 20.5 20.6569 20.5 19V11C20.5 9.34315 19.1569 8 17.5 8V7C17.5 4.23858 15.2614 2 12.5 2C9.73858 2 7.5 4.23858 7.5 7ZM12.5 4C10.8431 4 9.5 5.34315 9.5 7V8H15.5V7C15.5 5.34315 14.1569 4 12.5 4ZM14.5 14C14.5 14.7403 14.0978 15.3866 13.5 15.7324V17C13.5 17.5523 13.0523 18 12.5 18C11.9477 18 11.5 17.5523 11.5 17V15.7324C10.9022 15.3866 10.5 14.7403 10.5 14C10.5 12.8954 11.3954 12 12.5 12C13.6046 12 14.5 12.8954 14.5 14Z" fill="black"/>
</svg>
