<svg width="96" height="96" viewBox="0 0 96 96" fill="none" xmlns="http://www.w3.org/2000/svg">
<rect width="96" height="96" rx="18" fill="white"/>
<path d="M14.6699 26.0006V38.0026H21.3366V28.0026H31.3366V21.3359H19.3366C18.0996 21.3372 16.9137 21.829 16.0388 22.7034C15.164 23.5779 14.6717 24.7637 14.6699 26.0006Z" fill="black"/>
<path d="M81.3333 26.0006C81.3316 24.7637 80.8393 23.5779 79.9644 22.7034C79.0896 21.829 77.9036 21.3372 76.6667 21.3359H64.6667V28.0026H74.6667V38.0026H81.3333V26.0006Z" fill="black"/>
<path d="M74.6667 58.0026H81.3333V70.0026C81.3319 71.2398 80.8398 72.426 79.9649 73.3009C79.0901 74.1757 77.9039 74.6679 76.6667 74.6693H64.6667V68.0026H74.6667V58.0026Z" fill="black"/>
<path d="M14.6699 70.0026C14.6713 71.2398 15.1635 72.426 16.0383 73.3009C16.9132 74.1757 18.0993 74.6679 19.3366 74.6693H31.3366V68.0026H21.3366V58.0026H14.6699V70.0026Z" fill="black"/>
<path d="M27.9935 34.6596H34.6602V61.3263H27.9935V34.6596Z" fill="black"/>
<path d="M51.3301 34.6596H44.6634V61.3263H51.3301V34.6596Z" fill="black"/>
<path d="M61.3268 34.6596H67.9935V61.3263H61.3268V34.6596Z" fill="black"/>
<path d="M41.3289 34.6606H37.9955V61.3273H41.3289V34.6606Z" fill="black"/>
<path d="M54.6667 34.6606H58V61.3273H54.6667V34.6606Z" fill="black"/>
</svg>
