<svg width="75" height="74" viewBox="0 0 75 74" fill="none" xmlns="http://www.w3.org/2000/svg">
<path d="M52.5 35.8276L62.5 30V49.2759L52.5 56" stroke="black" stroke-width="2.8" stroke-linecap="round" stroke-linejoin="round"/>
<path d="M61.5 30L56.0263 24L53.5 26.1818" stroke="black" stroke-width="2.8" stroke-linecap="round" stroke-linejoin="round"/>
<path d="M32.5 15.5V9L33.5 8.5L46.5 15V21L52 25M32.5 15.5L27.5 25M32.5 15.5L45.5 22L40 31.5M27.5 25L40 31.5M27.5 25V45M40 31.5L52 25M40 31.5V66.5M52 25L52.5 58.5L40 66.5M40 66.5L30.5 60.5" stroke="black" stroke-width="2.8" stroke-linecap="round" stroke-linejoin="round"/>
<path d="M20.5 44.5C18.6667 44.8333 14.6 46.1 13 48.5C11 51.5 10.5 57.5 13 61C15.5 64.5 23 66 27 63C31 60 32.5 55.5 30.5 50C28.9 45.6 25.5 44.5 24 44.5M23 42C22.3334 42.8333 21.1 45 21.5 47" stroke="black" stroke-width="2.8" stroke-linecap="round" stroke-linejoin="round"/>
</svg>
