<svg width="73" height="74" viewBox="0 0 73 74" fill="none" xmlns="http://www.w3.org/2000/svg">
<path d="M52.7382 33.0412V61.706L45.0243 65.5401L20.2849 53.49L20.3306 24.6426" stroke="black" stroke-width="3" stroke-linecap="round" stroke-linejoin="round"/>
<path d="M45.0243 36.4648V65.5404" stroke="black" stroke-width="3" stroke-linecap="round" stroke-linejoin="round"/>
<path d="M20.1923 41.6161V13.9648C20.1923 11.9222 21.9272 10.8252 24.0274 11.5439C26.1275 12.2626 27.8625 14.5322 27.8625 16.5748V26.2206L37.3133 30.5224V19.0336C37.3133 16.9909 39.0482 15.8939 41.1484 16.6127C43.2486 17.3314 44.9378 19.601 44.9378 21.6436V49.2949" stroke="black" stroke-width="3" stroke-linecap="round" stroke-linejoin="round"/>
<path d="M22.5156 11.085C22.5156 9.05513 24.2571 7.965 26.3651 8.67923C28.4732 9.39345 30.2146 11.6489 30.2146 13.6788V23.2644L36.9266 26.2273M45.1544 21.1218L45.1086 17.2123C45.1086 15.1824 46.85 14.0923 48.9581 14.8065C51.0662 15.5207 52.8076 17.7762 52.8076 19.8061V47.2849" stroke="black" stroke-width="3" stroke-linecap="round" stroke-linejoin="round"/>
<path d="M20.6044 46.7344L44.7047 58.2368L52.7382 54.5396" stroke="black" stroke-width="3" stroke-linecap="round" stroke-linejoin="round"/>
</svg>
