<svg width="32" height="26" viewBox="0 0 32 26" fill="none" xmlns="http://www.w3.org/2000/svg">
<path d="M0 2.54921V8.25016H3.16667V3.50016H7.91667V0.333496H2.21667C1.62911 0.334082 1.06578 0.567681 0.65023 0.983054C0.234679 1.39843 0.000838229 1.96166 0 2.54921Z" fill="#A7070F"/>
<path d="M31.6651 2.54921C31.6643 1.96166 31.4304 1.39843 31.0149 0.983054C30.5993 0.567681 30.036 0.334082 29.4485 0.333496H23.7485V3.50016H28.4985V8.25016H31.6651V2.54921Z" fill="#A7070F"/>
<path d="M28.4985 17.7502H31.6651V23.4502C31.6644 24.0379 31.4307 24.6013 31.0151 25.0168C30.5996 25.4324 30.0361 25.6662 29.4485 25.6668H23.7485V22.5002H28.4985V17.7502Z" fill="#A7070F"/>
<path d="M0 23.4502C0.000670498 24.0379 0.234427 24.6013 0.649987 25.0168C1.06555 25.4324 1.62898 25.6662 2.21667 25.6668H7.91667V22.5002H3.16667V17.7502H0V23.4502Z" fill="#A7070F"/>
<path d="M6.32869 6.66224H9.49536V19.3289H6.32869V6.66224Z" fill="#A7070F"/>
<path d="M17.4136 6.66224H14.2469V19.3289H17.4136V6.66224Z" fill="#A7070F"/>
<path d="M22.162 6.66224H25.3287V19.3289H22.162V6.66224Z" fill="#A7070F"/>
<path d="M12.663 6.66272H11.0797V19.3294H12.663V6.66272Z" fill="#A7070F"/>
<path d="M18.9985 6.66272H20.5818V19.3294H18.9985V6.66272Z" fill="#A7070F"/>
</svg>
