<svg width="24" height="24" viewBox="0 0 24 24" fill="none" xmlns="http://www.w3.org/2000/svg">
<path d="M3.98573 21.1909L9.28903 20.1302C9.48262 20.0915 9.66043 19.9964 9.80003 19.8568L16.4498 13.2069C16.8403 12.8164 16.8403 12.1832 16.4498 11.7927L12.2072 7.55006C11.8167 7.15954 11.1835 7.15954 10.793 7.55006L4.14317 14.1999C4.00357 14.3395 3.90842 14.5173 3.8697 14.7109L2.80904 20.0142C2.66909 20.7139 3.28601 21.3308 3.98573 21.1909Z" fill="black"/>
<path d="M20.1925 5.2216L18.7783 3.80739C17.6068 2.63582 15.7073 2.63582 14.5357 3.80739L13.5504 4.79268C13.1599 5.1832 13.1599 5.81637 13.5504 6.20689L17.793 10.4495C18.1836 10.8401 18.8167 10.8401 19.2073 10.4495L20.1925 9.46425C21.3641 8.29267 21.3641 6.39318 20.1925 5.2216Z" fill="black"/>
</svg>
