<svg width="24" height="23" viewBox="0 0 24 23" fill="none" xmlns="http://www.w3.org/2000/svg">
<path fill-rule="evenodd" clip-rule="evenodd" d="M19.6973 0.53604L23.4318 0.121094L23.0169 3.85561C22.6332 7.30856 21.0858 10.5281 18.6292 12.9847L16.0557 15.5713C16.972 16.4876 17.1141 17.9233 16.3953 19.0015L14.2341 22.2433C13.7091 23.0309 12.5947 23.1412 11.9254 22.4719L10.4277 20.9742L10.8519 18.0043L5.54861 12.701L2.57876 13.1253L1.08103 11.6276C0.411702 10.9582 0.522047 9.84388 1.30964 9.31882L4.55145 7.15761C5.62965 6.43881 7.06531 6.58097 7.98161 7.49726L10.5682 4.92373C13.0248 2.4671 16.2444 0.919701 19.6973 0.53604ZM21.2279 3.65684L21.3944 2.15856L19.8961 2.32503C16.8494 2.66356 14.0086 4.02891 11.841 6.19652L9.26745 8.77005C8.5609 9.4766 7.41536 9.4766 6.70882 8.77006C6.39924 8.46048 5.91419 8.41245 5.54991 8.6553L2.61258 10.6135L3.21516 11.2161L6.18501 10.7918L12.7611 17.3679L12.3368 20.3378L12.9394 20.9404L14.8976 18.003C15.1405 17.6387 15.0925 17.1537 14.7829 16.8441C14.0763 16.1376 14.0763 14.992 14.7829 14.2855L17.3564 11.712C19.524 9.54434 20.8894 6.70355 21.2279 3.65684Z" fill="white"/>
<path d="M5.30338 14.8908L3.2173 20.3711L8.69773 18.2847L5.30338 14.8908Z" fill="white"/>
</svg>
