<svg width="49" height="48" viewBox="0 0 49 48" fill="none" xmlns="http://www.w3.org/2000/svg">
<path d="M36.5 16.5H32V19.5H36.5V16.5Z" fill="black"/>
<path d="M12.5 22.5H17V25.5H12.5V22.5Z" fill="black"/>
<path d="M30.5 31.5V28.5H18.5V31.5H30.5Z" fill="black"/>
<path d="M23 22.5H18.5V25.5H23V22.5Z" fill="black"/>
<path d="M29 22.5H24.5V25.5H29V22.5Z" fill="black"/>
<path d="M36.5 22.5H30.5V25.5H36.5V22.5Z" fill="black"/>
<path d="M24.5 16.5H20V19.5H24.5V16.5Z" fill="black"/>
<path d="M18.5 16.5H12.5V19.5H18.5V16.5Z" fill="black"/>
<path d="M30.5 16.5H26V19.5H30.5V16.5Z" fill="black"/>
<path fill-rule="evenodd" clip-rule="evenodd" d="M29.75 9C34.6602 9 37.1152 9 38.9188 10.1052C39.9279 10.7236 40.7764 11.5721 41.3948 12.5812C42.5 14.3848 42.5 16.8398 42.5 21.75V26.25C42.5 31.1602 42.5 33.6152 41.3948 35.4188C40.7764 36.4279 39.9279 37.2764 38.9188 37.8948C37.1152 39 34.6602 39 29.75 39H19.25C14.3398 39 11.8848 39 10.0812 37.8948C9.07208 37.2764 8.22357 36.4279 7.60522 35.4188C6.5 33.6152 6.5 31.1602 6.5 26.25V21.75C6.5 16.8398 6.5 14.3848 7.60522 12.5812C8.22357 11.5721 9.07208 10.7236 10.0812 10.1052C11.8848 9 14.3398 9 19.25 9H29.75ZM39.5 21.75V26.25C39.5 28.7631 39.4969 30.4374 39.3753 31.7153C39.2581 32.9487 39.0521 33.5001 38.8368 33.8513C38.4658 34.4568 37.9568 34.9658 37.3513 35.3368C37.0001 35.5521 36.4487 35.7581 35.2153 35.8753C33.9374 35.9969 32.2631 36 29.75 36H19.25C16.7369 36 15.0626 35.9969 13.7847 35.8753C12.5513 35.7581 11.9999 35.5521 11.6487 35.3368C11.0432 34.9658 10.5342 34.4568 10.1632 33.8513C9.94788 33.5001 9.74188 32.9487 9.62469 31.7153C9.50311 30.4374 9.5 28.7631 9.5 26.25V21.75C9.5 19.2369 9.50311 17.5626 9.62469 16.2847C9.74188 15.0513 9.94788 14.4999 10.1632 14.1487C10.5342 13.5432 11.0432 13.0342 11.6487 12.6632C11.9999 12.4479 12.5513 12.2419 13.7847 12.1247C15.0626 12.0031 16.7369 12 19.25 12H29.75C32.2631 12 33.9374 12.0031 35.2153 12.1247C36.4487 12.2419 37.0001 12.4479 37.3513 12.6632C37.9568 13.0342 38.4658 13.5432 38.8368 14.1487C39.0521 14.4999 39.2581 15.0513 39.3753 16.2847C39.4969 17.5626 39.5 19.2369 39.5 21.75Z" fill="black"/>
</svg>
