<svg width="42" height="42" viewBox="0 0 42 42" fill="none" xmlns="http://www.w3.org/2000/svg">
<path d="M18.4219 11.5479C18.4219 10.124 19.5761 8.96973 21 8.96973C22.4239 8.96973 23.5781 10.124 23.5781 11.5479C23.5781 12.9717 22.4239 14.126 21 14.126C19.5761 14.126 18.4219 12.9717 18.4219 11.5479ZM18.4219 21.001C18.4219 19.5771 19.5761 18.4229 21 18.4229C22.4239 18.4229 23.5781 19.5771 23.5781 21.001C23.5781 22.4248 22.4239 23.5791 21 23.5791C19.5761 23.5791 18.4219 22.4248 18.4219 21.001ZM21 27.876C19.5761 27.876 18.4219 29.0302 18.4219 30.4541C18.4219 31.878 19.5761 33.0322 21 33.0322C22.4239 33.0322 23.5781 31.878 23.5781 30.4541C23.5781 29.0302 22.4239 27.876 21 27.876Z" fill="#21201F"/>
</svg>
