<svg width="116" height="116" viewBox="0 0 116 116" fill="none" xmlns="http://www.w3.org/2000/svg">
<path d="M58 23.1667C36.2686 23.1667 18.6666 40.9342 18.6666 62.8333C18.6666 73.7989 23.0738 83.7206 30.211 90.9059C31.6972 92.4022 31.6995 94.8341 30.2161 96.3332C28.7375 97.8276 26.3414 97.8299 24.86 96.3384C16.3542 87.7751 11.0833 75.9223 11.0833 62.8333C11.0833 36.6837 32.0968 15.5 58 15.5C83.9032 15.5 104.917 36.6837 104.917 62.8333C104.917 75.9058 99.659 87.7453 91.172 96.3061C89.692 97.799 87.2959 97.799 85.8159 96.3061C84.3311 94.8084 84.3311 92.3766 85.8159 90.8788C92.9372 83.6956 97.3333 73.7851 97.3333 62.8333C97.3333 40.9342 79.7313 23.1667 58 23.1667Z" fill="#F5C400" stroke="white" stroke-width="2" stroke-linecap="round"/>
<path d="M63.7629 50.6474L64.4055 50.9575L64.9078 50.4508L74.4886 40.7867C75.9687 39.2938 78.3647 39.2938 79.8447 40.7867C81.3295 42.2844 81.3295 44.7162 79.8447 46.214L70.2639 55.8781L69.7697 56.3766L70.0706 57.0108C70.9063 58.7724 71.375 60.7463 71.375 62.8337C71.375 70.2977 65.3787 76.3337 58 76.3337C50.6213 76.3337 44.625 70.2977 44.625 62.8337C44.625 55.3696 50.6213 49.3337 58 49.3337C60.0653 49.3337 62.0188 49.8054 63.7629 50.6474ZM58 57.0003C54.7932 57.0003 52.2083 59.6202 52.2083 62.8337C52.2083 66.0471 54.7932 68.667 58 68.667C61.2068 68.667 63.7917 66.0471 63.7917 62.8337C63.7917 59.6202 61.2068 57.0003 58 57.0003Z" fill="#F5C400" stroke="white" stroke-width="2" stroke-linecap="round"/>
</svg>
