<svg width="102" height="102" viewBox="0 0 102 102" fill="none" xmlns="http://www.w3.org/2000/svg">
<path d="M73.25 17V16H72.25H29.75H28.75V17V42.5C28.75 54.7883 38.7117 64.75 51 64.75C63.2883 64.75 73.25 54.7883 73.25 42.5V17ZM21.25 18H22.25V17C22.25 12.8579 25.6079 9.5 29.75 9.5H72.25C76.3921 9.5 79.75 12.8579 79.75 17V18H80.75H89.25C93.3921 18 96.75 21.3579 96.75 25.5V34C96.75 42.8366 89.5866 50 80.75 50H79.518H78.7723L78.5596 50.7148C75.4036 61.3188 66.2926 69.359 55.1084 70.9588L54.25 71.0816V71.9487V85V86H55.25H68C69.7949 86 71.25 87.4551 71.25 89.25C71.25 91.0449 69.7949 92.5 68 92.5H34C32.2051 92.5 30.75 91.0449 30.75 89.25C30.75 87.4551 32.2051 86 34 86H46.75H47.75V85V71.9487V71.0816L46.8916 70.9588C35.7074 69.359 26.5964 61.3188 23.4404 50.7148L23.2277 50H22.482H21.25C12.4134 50 5.25 42.8366 5.25 34V25.5C5.25 21.3579 8.60786 18 12.75 18L21.25 18ZM22.25 25.5V24.5H21.25H12.75H11.75V25.5V34C11.75 39.2467 16.0033 43.5 21.25 43.5H22.25V42.5V25.5ZM80.75 24.5H79.75V25.5V42.5V43.5H80.75C85.9967 43.5 90.25 39.2467 90.25 34V25.5V24.5H89.25H80.75Z" fill="#F5C400" stroke="white" stroke-width="2"/>
</svg>
